<svg width="375" height="617" viewBox="0 0 375 617" fill="none" xmlns="http://www.w3.org/2000/svg">
<g clip-path="url(#clip0_2015_963)">
<g style="mix-blend-mode:overlay">
<path d="M-97 32.9286V-12H-65.3889M-97 32.9286V77.8571M-97 32.9286H-65.3889M-97 77.8571V122.786M-97 77.8571H-65.3889M-97 122.786V167.714M-97 122.786H-65.3889M-97 167.714V212.643M-97 167.714H-65.3889M-97 212.643V257.571M-97 212.643H-65.3889M-97 257.571V302.5M-97 257.571H-65.3889M-97 302.5V347.429M-97 302.5H-65.3889M-97 347.429V392.357M-97 347.429H-65.3889M-97 392.357V437.286M-97 392.357H-65.3889M-97 437.286V482.214M-97 437.286H-65.3889M-97 482.214V527.143M-97 482.214H-65.3889M-97 527.143V572.071M-97 527.143H-65.3889M-97 572.071V617H-65.3889M-97 572.071H-65.3889M-65.3889 -12V32.9286M-65.3889 -12H-33.7777M-65.3889 32.9286V77.8571M-65.3889 32.9286H-33.7777M-65.3889 77.8571V122.786M-65.3889 77.8571H-33.7777M-65.3889 122.786V167.714M-65.3889 122.786H-33.7777M-65.3889 167.714V212.643M-65.3889 167.714H-33.7777M-65.3889 212.643V257.571M-65.3889 212.643H-33.7777M-65.3889 257.571V302.5M-65.3889 257.571H-33.7777M-65.3889 302.5V347.429M-65.3889 302.5H-33.7777M-65.3889 347.429V392.357M-65.3889 347.429H-33.7777M-65.3889 392.357V437.286M-65.3889 392.357H-33.7777M-65.3889 437.286V482.214M-65.3889 437.286H-33.7777M-65.3889 482.214V527.143M-65.3889 482.214H-33.7777M-65.3889 527.143V572.071M-65.3889 527.143H-33.7777M-65.3889 572.071V617M-65.3889 572.071H-33.7777M-65.3889 617H-33.7777M-33.7777 -12V32.9286M-33.7777 -12H-2.16664M-33.7777 32.9286V77.8571M-33.7777 32.9286H-2.16664M-33.7777 77.8571V122.786M-33.7777 77.8571H-2.16664M-33.7777 122.786V167.714M-33.7777 122.786H-2.16664M-33.7777 167.714V212.643M-33.7777 167.714H-2.16664M-33.7777 212.643V257.571M-33.7777 212.643H-2.16664M-33.7777 257.571V302.5M-33.7777 257.571H-2.16664M-33.7777 302.5V347.429M-33.7777 302.5H-2.16664M-33.7777 347.429V392.357M-33.7777 347.429H-2.16664M-33.7777 392.357V437.286M-33.7777 392.357H-2.16664M-33.7777 437.286V482.214M-33.7777 437.286H-2.16664M-33.7777 482.214V527.143M-33.7777 482.214H-2.16664M-33.7777 527.143V572.071M-33.7777 527.143H-2.16664M-33.7777 572.071V617M-33.7777 572.071H-2.16664M-33.7777 617H-2.16664M-2.16664 -12V32.9286M-2.16664 -12H29.4445M-2.16664 32.9286V77.8571M-2.16664 32.9286H29.4445M-2.16664 77.8571V122.786M-2.16664 77.8571H29.4445M-2.16664 122.786V167.714M-2.16664 122.786H29.4445M-2.16664 167.714V212.643M-2.16664 167.714H29.4445M-2.16664 212.643V257.571M-2.16664 212.643H29.4445M-2.16664 257.571V302.5M-2.16664 257.571H29.4445M-2.16664 302.5V347.429M-2.16664 302.5H29.4445M-2.16664 347.429V392.357M-2.16664 347.429H29.4445M-2.16664 392.357V437.286M-2.16664 392.357H29.4445M-2.16664 437.286V482.214M-2.16664 437.286H29.4445M-2.16664 482.214V527.143M-2.16664 482.214H29.4445M-2.16664 527.143V572.071M-2.16664 527.143H29.4445M-2.16664 572.071V617M-2.16664 572.071H29.4445M-2.16664 617H29.4445M29.4445 -12V32.9286M29.4445 -12H61.0556M29.4445 32.9286V77.8571M29.4445 32.9286H61.0556M29.4445 77.8571V122.786M29.4445 77.8571H61.0556M29.4445 122.786V167.714M29.4445 122.786H61.0556M29.4445 167.714V212.643M29.4445 167.714H61.0556M29.4445 212.643V257.571M29.4445 212.643H61.0556M29.4445 257.571V302.5M29.4445 257.571H61.0556M29.4445 302.5V347.429M29.4445 302.5H61.0556M29.4445 347.429V392.357M29.4445 347.429H61.0556M29.4445 392.357V437.286M29.4445 392.357H61.0556M29.4445 437.286V482.214M29.4445 437.286H61.0556M29.4445 482.214V527.143M29.4445 482.214H61.0556M29.4445 527.143V572.071M29.4445 527.143H61.0556M29.4445 572.071V617M29.4445 572.071H61.0556M29.4445 617H61.0556M61.0556 -12V32.9286M61.0556 -12H92.6667M61.0556 32.9286V77.8571M61.0556 32.9286H92.6667M61.0556 77.8571V122.786M61.0556 77.8571H92.6667M61.0556 122.786V167.714M61.0556 122.786H92.6667M61.0556 167.714V212.643M61.0556 167.714H92.6667M61.0556 212.643V257.571M61.0556 212.643H92.6667M61.0556 257.571V302.5M61.0556 257.571H92.6667M61.0556 302.5V347.429M61.0556 302.5H92.6667M61.0556 347.429V392.357M61.0556 347.429H92.6667M61.0556 392.357V437.286M61.0556 392.357H92.6667M61.0556 437.286V482.214M61.0556 437.286H92.6667M61.0556 482.214V527.143M61.0556 482.214H92.6667M61.0556 527.143V572.071M61.0556 527.143H92.6667M61.0556 572.071V617M61.0556 572.071H92.6667M61.0556 617H92.6667M92.6667 -12V32.9286M92.6667 -12H124.278M92.6667 32.9286V77.8571M92.6667 32.9286H124.278M92.6667 77.8571V122.786M92.6667 77.8571H124.278M92.6667 122.786V167.714M92.6667 122.786H124.278M92.6667 167.714V212.643M92.6667 167.714H124.278M92.6667 212.643V257.571M92.6667 212.643H124.278M92.6667 257.571V302.5M92.6667 257.571H124.278M92.6667 302.5V347.429M92.6667 302.5H124.278M92.6667 347.429V392.357M92.6667 347.429H124.278M92.6667 392.357V437.286M92.6667 392.357H124.278M92.6667 437.286V482.214M92.6667 437.286H124.278M92.6667 482.214V527.143M92.6667 482.214H124.278M92.6667 527.143V572.071M92.6667 527.143H124.278M92.6667 572.071V617M92.6667 572.071H124.278M92.6667 617H124.278M124.278 -12V32.9286M124.278 -12H155.889M124.278 32.9286V77.8571M124.278 32.9286H155.889M124.278 77.8571V122.786M124.278 77.8571H155.889M124.278 122.786V167.714M124.278 122.786H155.889M124.278 167.714V212.643M124.278 167.714H155.889M124.278 212.643V257.571M124.278 212.643H155.889M124.278 257.571V302.5M124.278 257.571H155.889M124.278 302.5V347.429M124.278 302.5H155.889M124.278 347.429V392.357M124.278 347.429H155.889M124.278 392.357V437.286M124.278 392.357H155.889M124.278 437.286V482.214M124.278 437.286H155.889M124.278 482.214V527.143M124.278 482.214H155.889M124.278 527.143V572.071M124.278 527.143H155.889M124.278 572.071V617M124.278 572.071H155.889M124.278 617H155.889M155.889 -12V32.9286M155.889 -12H187.5M155.889 32.9286V77.8571M155.889 32.9286H187.5M155.889 77.8571V122.786M155.889 77.8571H187.5M155.889 122.786V167.714M155.889 122.786H187.5M155.889 167.714V212.643M155.889 167.714H187.5M155.889 212.643V257.571M155.889 212.643H187.5M155.889 257.571V302.5M155.889 257.571H187.5M155.889 302.5V347.429M155.889 302.5H187.5M155.889 347.429V392.357M155.889 347.429H187.5M155.889 392.357V437.286M155.889 392.357H187.5M155.889 437.286V482.214M155.889 437.286H187.5M155.889 482.214V527.143M155.889 482.214H187.5M155.889 527.143V572.071M155.889 527.143H187.5M155.889 572.071V617M155.889 572.071H187.5M155.889 617H187.5M187.5 -12V32.9286M187.5 -12H219.111M187.5 32.9286V77.8571M187.5 32.9286H219.111M187.5 77.8571V122.786M187.5 77.8571H219.111M187.5 122.786V167.714M187.5 122.786H219.111M187.5 167.714V212.643M187.5 167.714H219.111M187.5 212.643V257.571M187.5 212.643H219.111M187.5 257.571V302.5M187.5 257.571H219.111M187.5 302.5V347.429M187.5 302.5H219.111M187.5 347.429V392.357M187.5 347.429H219.111M187.5 392.357V437.286M187.5 392.357H219.111M187.5 437.286V482.214M187.5 437.286H219.111M187.5 482.214V527.143M187.5 482.214H219.111M187.5 527.143V572.071M187.5 527.143H219.111M187.5 572.071V617M187.5 572.071H219.111M187.5 617H219.111M219.111 -12V32.9286M219.111 -12H250.722M219.111 32.9286V77.8571M219.111 32.9286H250.722M219.111 77.8571V122.786M219.111 77.8571H250.722M219.111 122.786V167.714M219.111 122.786H250.722M219.111 167.714V212.643M219.111 167.714H250.722M219.111 212.643V257.571M219.111 212.643H250.722M219.111 257.571V302.5M219.111 257.571H250.722M219.111 302.5V347.429M219.111 302.5H250.722M219.111 347.429V392.357M219.111 347.429H250.722M219.111 392.357V437.286M219.111 392.357H250.722M219.111 437.286V482.214M219.111 437.286H250.722M219.111 482.214V527.143M219.111 482.214H250.722M219.111 527.143V572.071M219.111 527.143H250.722M219.111 572.071V617M219.111 572.071H250.722M219.111 617H250.722M250.722 -12V32.9286M250.722 -12H282.333M250.722 32.9286V77.8571M250.722 32.9286H282.333M250.722 77.8571V122.786M250.722 77.8571H282.333M250.722 122.786V167.714M250.722 122.786H282.333M250.722 167.714V212.643M250.722 167.714H282.333M250.722 212.643V257.571M250.722 212.643H282.333M250.722 257.571V302.5M250.722 257.571H282.333M250.722 302.5V347.429M250.722 302.5H282.333M250.722 347.429V392.357M250.722 347.429H282.333M250.722 392.357V437.286M250.722 392.357H282.333M250.722 437.286V482.214M250.722 437.286H282.333M250.722 482.214V527.143M250.722 482.214H282.333M250.722 527.143V572.071M250.722 527.143H282.333M250.722 572.071V617M250.722 572.071H282.333M250.722 617H282.333M282.333 -12V32.9286M282.333 -12H313.944M282.333 32.9286V77.8571M282.333 32.9286H313.944M282.333 77.8571V122.786M282.333 77.8571H313.944M282.333 122.786V167.714M282.333 122.786H313.944M282.333 167.714V212.643M282.333 167.714H313.944M282.333 212.643V257.571M282.333 212.643H313.944M282.333 257.571V302.5M282.333 257.571H313.944M282.333 302.5V347.429M282.333 302.5H313.944M282.333 347.429V392.357M282.333 347.429H313.944M282.333 392.357V437.286M282.333 392.357H313.944M282.333 437.286V482.214M282.333 437.286H313.944M282.333 482.214V527.143M282.333 482.214H313.944M282.333 527.143V572.071M282.333 527.143H313.944M282.333 572.071V617M282.333 572.071H313.944M282.333 617H313.944M313.944 -12V32.9286M313.944 -12H345.556M313.944 32.9286V77.8571M313.944 32.9286H345.556M313.944 77.8571C313.944 95.4028 313.944 105.24 313.944 122.786M313.944 77.8571H345.556M313.944 122.786V167.714M313.944 122.786H345.556M313.944 167.714V212.643M313.944 167.714H345.556M313.944 212.643V257.571M313.944 212.643H345.556M313.944 257.571V302.5M313.944 257.571H345.556M313.944 302.5V347.429M313.944 302.5H345.556M313.944 347.429V392.357M313.944 347.429H345.556M313.944 392.357V437.286M313.944 392.357H345.556M313.944 437.286V482.214M313.944 437.286H345.556M313.944 482.214V527.143M313.944 482.214H345.556M313.944 527.143V572.071M313.944 527.143H345.556M313.944 572.071V617M313.944 572.071H345.556M313.944 617H345.556M345.556 -12V32.9286M345.556 -12H377.167M345.556 32.9286V77.8571M345.556 32.9286H377.167M345.556 77.8571V122.786M345.556 77.8571H377.167M345.556 122.786V167.714M345.556 122.786H377.167M345.556 167.714V212.643M345.556 167.714H377.167M345.556 212.643V257.571M345.556 212.643H377.167M345.556 257.571V302.5M345.556 257.571H377.167M345.556 302.5V347.429M345.556 302.5H377.167M345.556 347.429V392.357M345.556 347.429H377.167M345.556 392.357V437.286M345.556 392.357H377.167M345.556 437.286V482.214M345.556 437.286H377.167M345.556 482.214V527.143M345.556 482.214H377.167M345.556 527.143V572.071M345.556 527.143H377.167M345.556 572.071V617M345.556 572.071H377.167M345.556 617H377.167M377.167 -12V32.9286M377.167 -12H408.778M377.167 32.9286V77.8571M377.167 32.9286H408.778M377.167 77.8571V122.786M377.167 77.8571H408.778M377.167 122.786V167.714M377.167 122.786H408.778M377.167 167.714V212.643M377.167 167.714H408.778M377.167 212.643V257.571M377.167 212.643H408.778M377.167 257.571V302.5M377.167 257.571H408.778M377.167 302.5V347.429M377.167 302.5H408.778M377.167 347.429V392.357M377.167 347.429H408.778M377.167 392.357V437.286M377.167 392.357H408.778M377.167 437.286V482.214M377.167 437.286H408.778M377.167 482.214V527.143M377.167 482.214H408.778M377.167 527.143V572.071M377.167 527.143H408.778M377.167 572.071V617M377.167 572.071H408.778M377.167 617H408.778M408.778 -12V32.9286M408.778 -12H440.389M408.778 32.9286V77.8571M408.778 32.9286H440.389M408.778 77.8571V122.786M408.778 77.8571H440.389M408.778 122.786V167.714M408.778 122.786H440.389M408.778 167.714V212.643M408.778 167.714H440.389M408.778 212.643V257.571M408.778 212.643H440.389M408.778 257.571V302.5M408.778 257.571H440.389M408.778 302.5V347.429M408.778 302.5H440.389M408.778 347.429V392.357M408.778 347.429H440.389M408.778 392.357V437.286M408.778 392.357H440.389M408.778 437.286V482.214M408.778 437.286H440.389M408.778 482.214V527.143M408.778 482.214H440.389M408.778 527.143V572.071M408.778 527.143H440.389M408.778 572.071V617M408.778 572.071H440.389M408.778 617H440.389M440.389 -12V32.9286M440.389 -12H472V32.9286M440.389 32.9286V77.8571M440.389 32.9286H472M440.389 77.8571V122.786M440.389 77.8571H472M440.389 122.786V167.714M440.389 122.786H472M440.389 167.714V212.643M440.389 167.714H472M440.389 212.643V257.571M440.389 212.643H472M440.389 257.571V302.5M440.389 257.571H472M440.389 302.5V347.429M440.389 302.5H472M440.389 347.429V392.357M440.389 347.429H472M440.389 392.357V437.286M440.389 392.357H472M440.389 437.286V482.214M440.389 437.286H472M440.389 482.214V527.143M440.389 482.214H472M440.389 527.143V572.071M440.389 527.143H472M440.389 572.071V617M440.389 572.071H472M440.389 617H472V572.071M472 32.9286V77.8571M472 77.8571V122.786M472 122.786V167.714M472 167.714V212.643M472 212.643V257.571M472 257.571V302.5M472 302.5V347.429M472 347.429V392.357M472 392.357V437.286M472 437.286V482.214M472 482.214V527.143M472 527.143V572.071" stroke="url(#paint0_radial_2015_963)"/>
</g>
</g>
<defs>
<radialGradient id="paint0_radial_2015_963" cx="0" cy="0" r="1" gradientUnits="userSpaceOnUse" gradientTransform="translate(207 232.5) rotate(99.0512) scale(525.833 691.857)">
<stop stop-color="white" stop-opacity="0.28"/>
<stop offset="1" stop-color="white" stop-opacity="0"/>
</radialGradient>
<clipPath id="clip0_2015_963">
<rect width="375" height="617" fill="white"/>
</clipPath>
</defs>
</svg>
