<svg width="375" height="721" viewBox="0 0 375 721" fill="none" xmlns="http://www.w3.org/2000/svg">
<g clip-path="url(#clip0_2002_960)">
<g style="mix-blend-mode:overlay">
<path d="M-44.1743 44.3734L-36.1353 0.169922L-5.03425 5.82609M-44.1743 44.3734L-52.2133 88.5769M-44.1743 44.3734L-13.0733 50.0296M-52.2133 88.5769L-60.2524 132.78M-52.2133 88.5769L-21.1123 94.2331M-60.2524 132.78L-68.2914 176.984M-60.2524 132.78L-29.1514 138.437M-68.2914 176.984L-76.3305 221.187M-68.2914 176.984L-37.1904 182.64M-76.3305 221.187L-84.3695 265.391M-76.3305 221.187L-45.2295 226.844M-84.3695 265.391L-92.4086 309.594M-84.3695 265.391L-53.2685 271.047M-92.4086 309.594L-100.448 353.798M-92.4086 309.594L-61.3076 315.251M-100.448 353.798L-108.487 398.002M-100.448 353.798L-69.3466 359.454M-108.487 398.002L-116.526 442.205M-108.487 398.002L-77.3857 403.658M-116.526 442.205L-124.565 486.409M-116.526 442.205L-85.4247 447.861M-124.565 486.409L-132.604 530.612M-124.565 486.409L-93.4637 492.065M-132.604 530.612L-140.643 574.816M-132.604 530.612L-101.503 536.268M-140.643 574.816L-148.682 619.019L-117.581 624.675M-140.643 574.816L-109.542 580.472M-5.03425 5.82609L-13.0733 50.0296M-5.03425 5.82609L26.0667 11.4822M-13.0733 50.0296L-21.1123 94.2331M-13.0733 50.0296L18.0277 55.6858M-21.1123 94.2331L-29.1514 138.437M-21.1123 94.2331L9.98863 99.8893M-29.1514 138.437L-37.1904 182.64M-29.1514 138.437L1.94958 144.093M-37.1904 182.64L-45.2295 226.844M-37.1904 182.64L-6.08946 188.296M-45.2295 226.844L-53.2685 271.047M-45.2295 226.844L-14.1285 232.5M-53.2685 271.047L-61.3076 315.251M-53.2685 271.047L-22.1676 276.703M-61.3076 315.251L-69.3466 359.454M-61.3076 315.251L-30.2066 320.907M-69.3466 359.454L-77.3857 403.658M-69.3466 359.454L-38.2456 365.11M-77.3857 403.658L-85.4247 447.861M-77.3857 403.658L-46.2847 409.314M-85.4247 447.861L-93.4637 492.065M-85.4247 447.861L-54.3237 453.517M-93.4637 492.065L-101.503 536.268M-93.4637 492.065L-62.3628 497.721M-101.503 536.268L-109.542 580.472M-101.503 536.268L-70.4018 541.924M-109.542 580.472L-117.581 624.675M-109.542 580.472L-78.4409 586.128M-117.581 624.675L-86.4799 630.331M26.0667 11.4822L18.0277 55.6858M26.0667 11.4822L57.1677 17.1384M18.0277 55.6858L9.98863 99.8893M18.0277 55.6858L49.1286 61.3419M9.98863 99.8893L1.94958 144.093M9.98863 99.8893L41.0896 105.545M1.94958 144.093L-6.08946 188.296M1.94958 144.093L33.0505 149.749M-6.08946 188.296L-14.1285 232.5M-6.08946 188.296L25.0115 193.952M-14.1285 232.5L-22.1676 276.703M-14.1285 232.5L16.9725 238.156M-22.1676 276.703L-30.2066 320.907M-22.1676 276.703L8.93341 282.359M-30.2066 320.907L-38.2456 365.11M-30.2066 320.907L0.894373 326.563M-38.2456 365.11L-46.2847 409.314M-38.2456 365.11L-7.14467 370.766M-46.2847 409.314L-54.3237 453.517M-46.2847 409.314L-15.1837 414.97M-54.3237 453.517L-62.3628 497.721M-54.3237 453.517L-23.2228 459.173M-62.3628 497.721L-70.4018 541.924M-62.3628 497.721L-31.2618 503.377M-70.4018 541.924L-78.4409 586.128M-70.4018 541.924L-39.3009 547.581M-78.4409 586.128L-86.4799 630.331M-78.4409 586.128L-47.3399 591.784M-86.4799 630.331L-55.3789 635.988M57.1677 17.1384L49.1286 61.3419M57.1677 17.1384L88.2686 22.7946M49.1286 61.3419L41.0896 105.545M49.1286 61.3419L80.2296 66.9981M41.0896 105.545L33.0505 149.749M41.0896 105.545L72.1906 111.202M33.0505 149.749L25.0115 193.952M33.0505 149.749L64.1515 155.405M25.0115 193.952L16.9725 238.156M25.0115 193.952L56.1125 199.609M16.9725 238.156L8.93341 282.359M16.9725 238.156L48.0734 243.812M8.93341 282.359L0.894373 326.563M8.93341 282.359L40.0344 288.016M0.894373 326.563L-7.14467 370.766M0.894373 326.563L31.9953 332.219M-7.14467 370.766L-15.1837 414.97M-7.14467 370.766L23.9563 376.423M-15.1837 414.97L-23.2228 459.173M-15.1837 414.97L15.9172 420.626M-23.2228 459.173L-31.2618 503.377M-23.2228 459.173L7.8782 464.83M-31.2618 503.377L-39.3009 547.581M-31.2618 503.377L-0.160843 509.033M-39.3009 547.581L-47.3399 591.784M-39.3009 547.581L-8.19989 553.237M-47.3399 591.784L-55.3789 635.988M-47.3399 591.784L-16.2389 597.44M-55.3789 635.988L-24.278 641.644M88.2686 22.7946L80.2296 66.9981M88.2686 22.7946L119.37 28.4507M80.2296 66.9981L72.1906 111.202M80.2296 66.9981L111.331 72.6542M72.1906 111.202L64.1515 155.405M72.1906 111.202L103.292 116.858M64.1515 155.405L56.1125 199.609M64.1515 155.405L95.2525 161.061M56.1125 199.609L48.0734 243.812M56.1125 199.609L87.2134 205.265M48.0734 243.812L40.0344 288.016M48.0734 243.812L79.1744 249.468M40.0344 288.016L31.9953 332.219M40.0344 288.016L71.1353 293.672M31.9953 332.219L23.9563 376.423M31.9953 332.219L63.0963 337.875M23.9563 376.423L15.9172 420.626M23.9563 376.423L55.0573 382.079M15.9172 420.626L7.8782 464.83M15.9172 420.626L47.0182 426.282M7.8782 464.83L-0.160843 509.033M7.8782 464.83L38.9792 470.486M-0.160843 509.033L-8.19989 553.237M-0.160843 509.033L30.9401 514.689M-8.19989 553.237L-16.2389 597.44M-8.19989 553.237L22.9011 558.893M-16.2389 597.44L-24.278 641.644M-16.2389 597.44L14.862 603.096M-24.278 641.644L6.82299 647.3M119.37 28.4507L111.331 72.6542M119.37 28.4507L150.471 34.1069M111.331 72.6542L103.292 116.858M111.331 72.6542L142.432 78.3104M103.292 116.858L95.2525 161.061M103.292 116.858L134.392 122.514M95.2525 161.061L87.2134 205.265M95.2525 161.061L126.353 166.717M87.2134 205.265L79.1744 249.468M87.2134 205.265L118.314 210.921M79.1744 249.468L71.1353 293.672M79.1744 249.468L110.275 255.124M71.1353 293.672L63.0963 337.875M71.1353 293.672L102.236 299.328M63.0963 337.875L55.0573 382.079M63.0963 337.875L94.1973 343.531M55.0573 382.079L47.0182 426.282M55.0573 382.079L86.1582 387.735M47.0182 426.282L38.9792 470.486M47.0182 426.282L78.1192 431.938M38.9792 470.486L30.9401 514.689M38.9792 470.486L70.0801 476.142M30.9401 514.689L22.9011 558.893M30.9401 514.689L62.0411 520.345M22.9011 558.893L14.862 603.096M22.9011 558.893L54.002 564.549M14.862 603.096L6.82299 647.3M14.862 603.096L45.963 608.753M6.82299 647.3L37.924 652.956M150.471 34.1069L142.432 78.3104M150.471 34.1069L181.572 39.763M142.432 78.3104L134.392 122.514M142.432 78.3104L173.532 83.9665M134.392 122.514L126.353 166.717M134.392 122.514L165.493 128.17M126.353 166.717L118.314 210.921M126.353 166.717L157.454 172.374M118.314 210.921L110.275 255.124M118.314 210.921L149.415 216.577M110.275 255.124L102.236 299.328M110.275 255.124L141.376 260.781M102.236 299.328L94.1973 343.531M102.236 299.328L133.337 304.984M94.1973 343.531L86.1582 387.735M94.1973 343.531L125.298 349.188M86.1582 387.735L78.1192 431.938M86.1582 387.735L117.259 393.391M78.1192 431.938L70.0801 476.142M78.1192 431.938L109.22 437.595M70.0801 476.142L62.0411 520.345M70.0801 476.142L101.181 481.798M62.0411 520.345L54.002 564.549M62.0411 520.345L93.1421 526.002M54.002 564.549L45.963 608.753M54.002 564.549L85.103 570.205M45.963 608.753L37.924 652.956M45.963 608.753L77.064 614.409M37.924 652.956L69.0249 658.612M181.572 39.763L173.532 83.9665M181.572 39.763L212.673 45.4192M173.532 83.9665L165.493 128.17M173.532 83.9665L204.634 89.6227M165.493 128.17L157.454 172.374M165.493 128.17L196.594 133.826M157.454 172.374L149.415 216.577M157.454 172.374L188.555 178.03M149.415 216.577L141.376 260.781M149.415 216.577L180.516 222.233M141.376 260.781L133.337 304.984M141.376 260.781L172.477 266.437M133.337 304.984L125.298 349.188M133.337 304.984L164.438 310.64M125.298 349.188L117.259 393.391M125.298 349.188L156.399 354.844M117.259 393.391L109.22 437.595M117.259 393.391L148.36 399.047M109.22 437.595L101.181 481.798M109.22 437.595L140.321 443.251M101.181 481.798L93.1421 526.002M101.181 481.798L132.282 487.454M93.1421 526.002L85.103 570.205M93.1421 526.002L124.243 531.658M85.103 570.205L77.064 614.409M85.103 570.205L116.204 575.861M77.064 614.409L69.0249 658.612M77.064 614.409L108.165 620.065M69.0249 658.612L100.126 664.268M212.673 45.4192L204.634 89.6227M212.673 45.4192L243.773 51.0754M204.634 89.6227L196.594 133.826M204.634 89.6227L235.734 95.2789M196.594 133.826L188.555 178.03M196.594 133.826L227.695 139.482M188.555 178.03L180.516 222.233M188.555 178.03L219.656 183.686M180.516 222.233L172.477 266.437M180.516 222.233L211.617 227.889M172.477 266.437L164.438 310.64M172.477 266.437L203.578 272.093M164.438 310.64L156.399 354.844M164.438 310.64L195.539 316.296M156.399 354.844L148.36 399.047M156.399 354.844L187.5 360.5M148.36 399.047L140.321 443.251M148.36 399.047L179.461 404.703M140.321 443.251L132.282 487.454M140.321 443.251L171.422 448.907M132.282 487.454L124.243 531.658M132.282 487.454L163.383 493.11M124.243 531.658L116.204 575.861M124.243 531.658L155.344 537.314M116.204 575.861L108.165 620.065M116.204 575.861L147.305 581.517M108.165 620.065L100.126 664.268M108.165 620.065L139.266 625.721M100.126 664.268L131.227 669.925M243.773 51.0754L235.734 95.2789M243.773 51.0754L274.874 56.7315M235.734 95.2789L227.695 139.482M235.734 95.2789L266.835 100.935M227.695 139.482L219.656 183.686M227.695 139.482L258.796 145.139M219.656 183.686L211.617 227.889M219.656 183.686L250.757 189.342M211.617 227.889L203.578 272.093M211.617 227.889L242.718 233.546M203.578 272.093L195.539 316.296M203.578 272.093L234.679 277.749M195.539 316.296L187.5 360.5M195.539 316.296L226.64 321.953M187.5 360.5L179.461 404.703M187.5 360.5L218.601 366.156M179.461 404.703L171.422 448.907M179.461 404.703L210.562 410.36M171.422 448.907L163.383 493.11M171.422 448.907L202.523 454.563M163.383 493.11L155.344 537.314M163.383 493.11L194.484 498.767M155.344 537.314L147.305 581.517M155.344 537.314L186.445 542.97M147.305 581.517L139.266 625.721M147.305 581.517L178.406 587.174M139.266 625.721L131.227 669.925M139.266 625.721L170.367 631.377M131.227 669.925L162.328 675.581M274.874 56.7315L266.835 100.935M274.874 56.7315L305.975 62.3877M266.835 100.935L258.796 145.139M266.835 100.935L297.936 106.591M258.796 145.139L250.757 189.342M258.796 145.139L289.897 150.795M250.757 189.342L242.718 233.546M250.757 189.342L281.858 194.998M242.718 233.546L234.679 277.749M242.718 233.546L273.819 239.202M234.679 277.749L226.64 321.953M234.679 277.749L265.78 283.405M226.64 321.953L218.601 366.156M226.64 321.953L257.741 327.609M218.601 366.156L210.562 410.36M218.601 366.156L249.702 371.812M210.562 410.36L202.523 454.563M210.562 410.36L241.663 416.016M202.523 454.563L194.484 498.767M202.523 454.563L233.624 460.219M194.484 498.767L186.445 542.97M194.484 498.767L225.585 504.423M186.445 542.97L178.406 587.174M186.445 542.97L217.546 548.626M178.406 587.174L170.367 631.377M178.406 587.174L209.507 592.83M170.367 631.377L162.328 675.581M170.367 631.377L201.468 637.033M162.328 675.581L193.429 681.237M305.975 62.3877L297.936 106.591M305.975 62.3877L337.076 68.0438M297.936 106.591L289.897 150.795M297.936 106.591L329.037 112.247M289.897 150.795L281.858 194.998M289.897 150.795L320.998 156.451M281.858 194.998L273.819 239.202M281.858 194.998L312.959 200.654M273.819 239.202L265.78 283.405M273.819 239.202L304.92 244.858M265.78 283.405L257.741 327.609M265.78 283.405L296.881 289.061M257.741 327.609L249.702 371.812M257.741 327.609L288.842 333.265M249.702 371.812L241.663 416.016M249.702 371.812L280.803 377.468M241.663 416.016L233.624 460.219M241.663 416.016L272.764 421.672M233.624 460.219L225.585 504.423M233.624 460.219L264.725 465.875M225.585 504.423L217.546 548.626M225.585 504.423L256.686 510.079M217.546 548.626L209.507 592.83M217.546 548.626L248.647 554.282M209.507 592.83L201.468 637.033M209.507 592.83L240.608 598.486M201.468 637.033L193.429 681.237M201.468 637.033L232.569 642.689M193.429 681.237L224.53 686.893M337.076 68.0438L329.037 112.247M337.076 68.0438L368.177 73.7M329.037 112.247L320.998 156.451M329.037 112.247L360.138 117.903M320.998 156.451L312.959 200.654M320.998 156.451L352.099 162.107M312.959 200.654L304.92 244.858M312.959 200.654L344.06 206.311M304.92 244.858L296.881 289.061M304.92 244.858L336.021 250.514M296.881 289.061L288.842 333.265M296.881 289.061L327.982 294.718M288.842 333.265L280.803 377.468M288.842 333.265L319.943 338.921M280.803 377.468L272.764 421.672M280.803 377.468L311.904 383.125M272.764 421.672L264.725 465.875M272.764 421.672L303.865 427.328M264.725 465.875L256.686 510.079M264.725 465.875L295.826 471.532M256.686 510.079L248.647 554.282M256.686 510.079L287.787 515.735M248.647 554.282L240.608 598.486M248.647 554.282L279.748 559.939M240.608 598.486L232.569 642.689M240.608 598.486L271.709 604.142M232.569 642.689L224.53 686.893M232.569 642.689L263.67 648.346M224.53 686.893L255.631 692.549M368.177 73.7L360.138 117.903M368.177 73.7L399.278 79.3561M360.138 117.903L352.099 162.107M360.138 117.903L391.239 123.56M352.099 162.107C348.96 179.37 347.2 189.048 344.06 206.311M352.099 162.107L383.2 167.763M344.06 206.311L336.021 250.514M344.06 206.311L375.161 211.967M336.021 250.514L327.982 294.718M336.021 250.514L367.122 256.17M327.982 294.718L319.943 338.921M327.982 294.718L359.083 300.374M319.943 338.921L311.904 383.125M319.943 338.921L351.044 344.577M311.904 383.125L303.865 427.328M311.904 383.125L343.005 388.781M303.865 427.328L295.826 471.532M303.865 427.328L334.966 432.984M295.826 471.532L287.787 515.735M295.826 471.532L326.927 477.188M287.787 515.735L279.748 559.939M287.787 515.735L318.888 521.391M279.748 559.939L271.709 604.142M279.748 559.939L310.849 565.595M271.709 604.142L263.67 648.346M271.709 604.142L302.81 609.798M263.67 648.346L255.631 692.549M263.67 648.346L294.771 654.002M255.631 692.549L286.732 698.205M399.278 79.3561L391.239 123.56M399.278 79.3561L430.379 85.0123M391.239 123.56L383.2 167.763M391.239 123.56L422.34 129.216M383.2 167.763L375.161 211.967M383.2 167.763L414.301 173.419M375.161 211.967L367.122 256.17M375.161 211.967L406.262 217.623M367.122 256.17L359.083 300.374M367.122 256.17L398.223 261.826M359.083 300.374L351.044 344.577M359.083 300.374L390.184 306.03M351.044 344.577L343.005 388.781M351.044 344.577L382.145 350.233M343.005 388.781L334.966 432.984M343.005 388.781L374.106 394.437M334.966 432.984L326.927 477.188M334.966 432.984L366.067 438.64M326.927 477.188L318.888 521.391M326.927 477.188L358.028 482.844M318.888 521.391L310.849 565.595M318.888 521.391L349.989 527.047M310.849 565.595L302.81 609.798M310.849 565.595L341.95 571.251M302.81 609.798L294.771 654.002M302.81 609.798L333.911 615.454M294.771 654.002L286.732 698.205M294.771 654.002L325.872 659.658M286.732 698.205L317.833 703.861M430.379 85.0123L422.34 129.216M430.379 85.0123L461.48 90.6685M422.34 129.216L414.301 173.419M422.34 129.216L453.441 134.872M414.301 173.419L406.262 217.623M414.301 173.419L445.402 179.075M406.262 217.623L398.223 261.826M406.262 217.623L437.363 223.279M398.223 261.826L390.184 306.03M398.223 261.826L429.324 267.482M390.184 306.03L382.145 350.233M390.184 306.03L421.285 311.686M382.145 350.233L374.106 394.437M382.145 350.233L413.246 355.89M374.106 394.437L366.067 438.64M374.106 394.437L405.207 400.093M366.067 438.64L358.028 482.844M366.067 438.64L397.168 444.297M358.028 482.844L349.989 527.047M358.028 482.844L389.129 488.5M349.989 527.047L341.95 571.251M349.989 527.047L381.09 532.704M341.95 571.251L333.911 615.454M341.95 571.251L373.051 576.907M333.911 615.454L325.872 659.658M333.911 615.454L365.012 621.111M325.872 659.658L317.833 703.861M325.872 659.658L356.973 665.314M317.833 703.861L348.934 709.518M461.48 90.6685L453.441 134.872M461.48 90.6685L492.581 96.3246M453.441 134.872L445.402 179.075M453.441 134.872L484.542 140.528M445.402 179.075L437.363 223.279M445.402 179.075L476.503 184.732M437.363 223.279L429.324 267.482M437.363 223.279L468.464 228.935M429.324 267.482L421.285 311.686M429.324 267.482L460.425 273.139M421.285 311.686L413.246 355.89M421.285 311.686L452.386 317.342M413.246 355.89L405.207 400.093M413.246 355.89L444.347 361.546M405.207 400.093L397.168 444.297M405.207 400.093L436.308 405.749M397.168 444.297L389.129 488.5M397.168 444.297L428.269 449.953M389.129 488.5L381.09 532.704M389.129 488.5L420.23 494.156M381.09 532.704L373.051 576.907M381.09 532.704L412.191 538.36M373.051 576.907L365.012 621.111M373.051 576.907L404.152 582.563M365.012 621.111L356.973 665.314M365.012 621.111L396.113 626.767M356.973 665.314L348.934 709.518M356.973 665.314L388.074 670.97M348.934 709.518L380.035 715.174M492.581 96.3246L484.542 140.528M492.581 96.3246L523.682 101.981L515.643 146.184M484.542 140.528L476.503 184.732M484.542 140.528L515.643 146.184M476.503 184.732L468.464 228.935M476.503 184.732L507.604 190.388M468.464 228.935L460.425 273.139M468.464 228.935L499.565 234.591M460.425 273.139L452.386 317.342M460.425 273.139L491.526 278.795M452.386 317.342L444.347 361.546M452.386 317.342L483.487 322.998M444.347 361.546L436.308 405.749M444.347 361.546L475.448 367.202M436.308 405.749L428.269 449.953M436.308 405.749L467.409 411.405M428.269 449.953L420.23 494.156M428.269 449.953L459.37 455.609M420.23 494.156L412.191 538.36M420.23 494.156L451.331 499.812M412.191 538.36L404.152 582.563M412.191 538.36L443.292 544.016M404.152 582.563L396.113 626.767M404.152 582.563L435.253 588.219M396.113 626.767L388.074 670.97M396.113 626.767L427.214 632.423M388.074 670.97L380.035 715.174M388.074 670.97L419.175 676.626M380.035 715.174L411.136 720.83L419.175 676.626M515.643 146.184L507.604 190.388M507.604 190.388L499.565 234.591M499.565 234.591L491.526 278.795M491.526 278.795L483.487 322.998M483.487 322.998L475.448 367.202M475.448 367.202L467.409 411.405M467.409 411.405L459.37 455.609M459.37 455.609L451.331 499.812M451.331 499.812L443.292 544.016M443.292 544.016L435.253 588.219M435.253 588.219L427.214 632.423M427.214 632.423L419.175 676.626" stroke="url(#paint0_radial_2002_960)"/>
</g>
</g>
<defs>
<radialGradient id="paint0_radial_2002_960" cx="0" cy="0" r="1" gradientUnits="userSpaceOnUse" gradientTransform="translate(219.211 295.119) rotate(109.359) scale(525.833 691.857)">
<stop stop-color="white" stop-opacity="0.28"/>
<stop offset="1" stop-color="white" stop-opacity="0"/>
</radialGradient>
<clipPath id="clip0_2002_960">
<rect width="375" height="721" fill="white"/>
</clipPath>
</defs>
</svg>
