<svg width="21" height="20" viewBox="0 0 21 20" fill="none" xmlns="http://www.w3.org/2000/svg">
<path d="M18.4702 8.33268H3.47021M14.3035 1.66602V4.99935M7.63688 1.66602V4.99935M7.47021 18.3327H14.4702C15.8703 18.3327 16.5704 18.3327 17.1052 18.0602C17.5756 17.8205 17.958 17.4381 18.1977 16.9677C18.4702 16.4329 18.4702 15.7328 18.4702 14.3327V7.33268C18.4702 5.93255 18.4702 5.23249 18.1977 4.69771C17.958 4.2273 17.5756 3.84485 17.1052 3.60517C16.5704 3.33268 15.8703 3.33268 14.4702 3.33268H7.47021C6.07008 3.33268 5.37002 3.33268 4.83524 3.60517C4.36483 3.84485 3.98238 4.2273 3.7427 4.69771C3.47021 5.23249 3.47021 5.93255 3.47021 7.33268V14.3327C3.47021 15.7328 3.47021 16.4329 3.7427 16.9677C3.98238 17.4381 4.36483 17.8205 4.83524 18.0602C5.37002 18.3327 6.07008 18.3327 7.47021 18.3327Z" stroke="#8E1618" stroke-width="1.4" stroke-linecap="square" stroke-linejoin="round"/>
</svg>
