<svg width="14" height="14" viewBox="0 0 14 14" fill="none" xmlns="http://www.w3.org/2000/svg">
<g clip-path="url(#clip0_1_1692)">
<path d="M7 4.375C6.517 4.375 6.125 4.767 6.125 5.25V7.525L5.509 8.14056C5.29025 8.35931 5.25 8.56538 5.25 8.75C5.25 9.233 5.642 9.625 6.125 9.625C6.37787 9.625 6.58 9.51956 6.734 9.366L7.64006 8.46037C7.77 8.33044 7.875 8.12788 7.875 7.875V5.25C7.875 4.767 7.483 4.375 7 4.375ZM7 1.75C3.61725 1.75 0.875 4.49225 0.875 7.875C0.875 9.25356 1.33612 10.5219 2.10481 11.5456L1.12919 12.5213C0.959438 12.6901 0.875 12.8927 0.875 13.125C0.875 13.6447 1.3195 14 1.75 14C1.97575 14 2.18138 13.9186 2.35375 13.7463L3.32938 12.7706C4.35313 13.5389 5.62144 14 7 14C8.37856 14 9.64687 13.5389 10.6706 12.7702L11.6463 13.7458C11.8186 13.9186 12.0243 14 12.25 14C12.6805 14 13.125 13.6443 13.125 13.125C13.125 12.8927 13.0406 12.6901 12.8713 12.5213L11.8956 11.5456C12.6639 10.5219 13.125 9.25356 13.125 7.875C13.125 4.49225 10.3827 1.75 7 1.75ZM7 12.25C4.58413 12.25 2.625 10.2909 2.625 7.875C2.625 5.45913 4.58413 3.5 7 3.5C9.41587 3.5 11.375 5.45913 11.375 7.875C11.375 10.2909 9.41587 12.25 7 12.25ZM11.375 0C10.4431 0 9.62675 0.486938 9.16081 1.21888C10.8815 1.77669 12.3104 2.97981 13.1591 4.5465C13.6754 4.06744 14 3.3845 14 2.625C14 1.17556 12.8244 0 11.375 0ZM4.83919 1.21888C4.37325 0.486938 3.55687 0 2.625 0C1.17556 0 0 1.17556 0 2.625C0 3.3845 0.324625 4.06744 0.840875 4.54694C1.68919 2.98025 3.1185 1.77713 4.83919 1.21888Z" fill="white"/>
</g>
<defs>
<clipPath id="clip0_1_1692">
<rect width="14" height="14" fill="white"/>
</clipPath>
</defs>
</svg>
