<svg width="19" height="19" viewBox="0 0 19 19" fill="none" xmlns="http://www.w3.org/2000/svg">
<path d="M15.9346 3.02051C15.9412 3.02051 15.9479 3.02188 15.9541 3.02441L15.9707 3.03516L15.9766 3.04102C15.9813 3.04571 15.9857 3.05149 15.9883 3.05762C15.9909 3.06385 15.9922 3.07136 15.9922 3.07812C15.9921 3.08472 15.9908 3.09157 15.9883 3.09766L15.9766 3.11426L15.9746 3.11621L10.2959 8.78418L9.57227 9.50586L10.2959 10.2285L15.9746 15.8965L15.9766 15.8984C15.9814 15.9032 15.9857 15.9088 15.9883 15.915C15.9909 15.9212 15.9922 15.9279 15.9922 15.9346C15.9922 15.9412 15.9908 15.948 15.9883 15.9541L15.9766 15.9707L15.9707 15.9775C15.966 15.9821 15.9601 15.9858 15.9541 15.9883C15.948 15.9908 15.9412 15.9922 15.9346 15.9922C15.9279 15.9922 15.9212 15.9909 15.915 15.9883C15.9089 15.9857 15.9031 15.9822 15.8984 15.9775L15.1738 16.6953L15.8984 15.9766L15.8965 15.9746L10.2285 10.2959L9.50586 9.57227L8.78418 10.2959L3.11621 15.9746L3.11426 15.9775C3.10958 15.9822 3.10373 15.9857 3.09766 15.9883C3.09157 15.9908 3.08472 15.9921 3.07812 15.9922C3.07136 15.9922 3.06385 15.9909 3.05762 15.9883C3.05154 15.9857 3.04569 15.9822 3.04102 15.9775L2.31738 16.6953L3.04102 15.9766L3.03516 15.9707L3.02441 15.9541C3.02188 15.9479 3.02051 15.9412 3.02051 15.9346C3.02054 15.9279 3.02184 15.9212 3.02441 15.915L3.03516 15.8984L3.03809 15.8965L8.71582 10.2285L9.43945 9.50586L8.71582 8.78418L3.03809 3.11621H3.03711C3.0274 3.10601 3.02258 3.09223 3.02246 3.07812L3.02637 3.05664C3.02914 3.04988 3.03282 3.04335 3.03809 3.03809C3.04851 3.02766 3.06338 3.02246 3.07812 3.02246C3.09223 3.02258 3.10601 3.0274 3.11621 3.03711V3.03809L8.78418 8.71582L9.50586 9.43945L10.2285 8.71582L15.8965 3.03809L15.8984 3.03516C15.9031 3.03044 15.9089 3.02699 15.915 3.02441L15.9346 3.02051Z" fill="#111111" stroke="#111111" stroke-width="2.04046"/>
</svg>
