<svg width="23" height="23" viewBox="0 0 23 23" fill="none" xmlns="http://www.w3.org/2000/svg">
<g clip-path="url(#clip0_2044_1145)">
<path d="M2.64662 15.1317L3.32889 14.91L3.32889 14.91L2.64662 15.1317ZM1.58442 9.23185L2.27435 9.42837L1.58442 9.23185ZM6.01994 4.74966L5.59827 4.16929L5.59827 4.16929L6.01994 4.74966ZM1.69278 8.89836L2.36646 9.1449L1.69278 8.89836ZM5.53879 20.7352L5.13869 21.3306L5.13869 21.3306L5.53879 20.7352ZM5.2551 20.5291L4.81245 21.0936L4.81245 21.0936L5.2551 20.5291ZM20.3095 15.1317L19.6273 14.91L20.3095 15.1317ZM17.7011 20.5291L18.1437 21.0936L18.1437 21.0936L17.7011 20.5291ZM17.4174 20.7352L17.8175 21.3306L17.8175 21.3306L17.4174 20.7352ZM16.9362 4.74966L17.3579 4.16929L17.3579 4.16929L16.9362 4.74966ZM21.2634 8.89836L20.5897 9.1449L21.2634 8.89836ZM21.3717 9.23185L20.6818 9.42837L21.3717 9.23185ZM11.6534 1.9163L11.6271 2.6332L11.6534 1.9163ZM11.3028 1.9163L11.3291 2.6332L11.3028 1.9163ZM9.56507 16.3273C9.16888 16.3273 8.84769 16.6485 8.84769 17.0447C8.84769 17.4409 9.16888 17.7621 9.56507 17.7621V16.3273ZM13.3911 17.7621C13.7873 17.7621 14.1085 17.4409 14.1085 17.0447C14.1085 16.6485 13.7873 16.3273 13.3911 16.3273V17.7621ZM2.64662 15.1317L3.32889 14.91C2.83691 13.3958 2.48645 12.3141 2.30256 11.4359C2.12212 10.5742 2.11823 9.97649 2.27435 9.42837L1.58442 9.23185L0.894482 9.03533C0.651319 9.88901 0.691361 10.7419 0.898263 11.73C1.10172 12.7016 1.48201 13.8688 1.96435 15.3533L2.64662 15.1317ZM6.01994 4.74966L5.59827 4.16929C4.33548 5.08676 3.34171 5.80758 2.60602 6.47403C1.85785 7.15179 1.32415 7.81824 1.01909 8.65181L1.69278 8.89836L2.36646 9.1449C2.56233 8.6097 2.9168 8.12844 3.56928 7.53736C4.23423 6.93498 5.15358 6.26583 6.4416 5.33003L6.01994 4.74966ZM1.58442 9.23185L2.27435 9.42837C2.30158 9.33279 2.3323 9.23824 2.36646 9.1449L1.69278 8.89836L1.01909 8.65181C0.972883 8.77809 0.931318 8.90601 0.894482 9.03533L1.58442 9.23185ZM11.4781 21.5481V20.8307C9.886 20.8307 8.74891 20.8297 7.85689 20.7333C6.9816 20.6386 6.41194 20.4576 5.9389 20.1397L5.53879 20.7352L5.13869 21.3306C5.87545 21.8257 6.69894 22.0511 7.7026 22.1597C8.68952 22.2664 9.91718 22.2655 11.4781 22.2655V21.5481ZM2.64662 15.1317L1.96435 15.3533C2.4467 16.8379 2.82514 18.0057 3.23164 18.9114C3.64503 19.8323 4.11394 20.5459 4.81245 21.0936L5.2551 20.5291L5.69776 19.9645C5.24928 19.6129 4.90111 19.127 4.54059 18.3238C4.17317 17.5053 3.82087 16.4241 3.32889 14.91L2.64662 15.1317ZM5.53879 20.7352L5.9389 20.1397C5.8564 20.0843 5.77597 20.0259 5.69776 19.9645L5.2551 20.5291L4.81245 21.0936C4.91826 21.1766 5.02708 21.2556 5.13869 21.3306L5.53879 20.7352ZM20.3095 15.1317L19.6273 14.91C19.1353 16.4241 18.783 17.5053 18.4156 18.3238C18.0551 19.127 17.7069 19.6129 17.2584 19.9645L17.7011 20.5291L18.1437 21.0936C18.8422 20.5459 19.3111 19.8323 19.7245 18.9114C20.131 18.0057 20.5095 16.8379 20.9918 15.3533L20.3095 15.1317ZM11.4781 21.5481V22.2655C13.039 22.2655 14.2666 22.2664 15.2536 22.1597C16.2572 22.0511 17.0807 21.8257 17.8175 21.3306L17.4174 20.7352L17.0173 20.1397C16.5442 20.4576 15.9746 20.6386 15.0993 20.7333C14.2073 20.8297 13.0702 20.8307 11.4781 20.8307V21.5481ZM17.7011 20.5291L17.2584 19.9645C17.1802 20.0259 17.0998 20.0843 17.0173 20.1397L17.4174 20.7352L17.8175 21.3306C17.9291 21.2556 18.0379 21.1766 18.1437 21.0936L17.7011 20.5291ZM16.9362 4.74966L16.5146 5.33003C17.8026 6.26583 18.7219 6.93498 19.3869 7.53736C20.0394 8.12844 20.3938 8.6097 20.5897 9.1449L21.2634 8.89836L21.9371 8.65181C21.632 7.81824 21.0983 7.15179 20.3502 6.47403C19.6145 5.80758 18.6207 5.08676 17.3579 4.16929L16.9362 4.74966ZM20.3095 15.1317L20.9918 15.3533C21.4742 13.8688 21.8545 12.7016 22.0579 11.73C22.2648 10.7419 22.3048 9.88901 22.0617 9.03533L21.3717 9.23185L20.6818 9.42837C20.8379 9.97649 20.834 10.5742 20.6536 11.4359C20.4697 12.3141 20.1193 13.3958 19.6273 14.91L20.3095 15.1317ZM21.2634 8.89836L20.5897 9.1449C20.6239 9.23823 20.6546 9.33279 20.6818 9.42837L21.3717 9.23185L22.0617 9.03533C22.0249 8.90601 21.9833 8.77809 21.9371 8.65181L21.2634 8.89836ZM16.9362 4.74966L17.3579 4.16929C16.0951 3.25181 15.1025 2.52942 14.2413 2.03569C13.3655 1.53358 12.5668 1.23194 11.6797 1.1994L11.6534 1.9163L11.6271 2.6332C12.1967 2.65409 12.7639 2.8425 13.5277 3.28039C14.306 3.72665 15.2265 4.39423 16.5146 5.33003L16.9362 4.74966ZM6.01994 4.74966L6.4416 5.33003C7.72963 4.39423 8.65012 3.72665 9.4285 3.28039C10.1923 2.8425 10.7595 2.65409 11.3291 2.6332L11.3028 1.9163L11.2765 1.1994C10.3894 1.23194 9.59066 1.53358 8.71488 2.03569C7.8537 2.52942 6.86107 3.25181 5.59827 4.16929L6.01994 4.74966ZM11.6534 1.9163L11.6797 1.1994C11.5453 1.19447 11.4108 1.19447 11.2765 1.1994L11.3028 1.9163L11.3291 2.6332C11.4284 2.62955 11.5278 2.62955 11.6271 2.6332L11.6534 1.9163ZM9.56507 17.0447V17.7621H13.3911V17.0447V16.3273H9.56507V17.0447Z" fill="#7A7F88"/>
</g>
<defs>
<clipPath id="clip0_2044_1145">
<rect width="22.9561" height="22.9561" fill="white"/>
</clipPath>
</defs>
</svg>
