<svg width="20" height="20" viewBox="0 0 20 20" fill="none" xmlns="http://www.w3.org/2000/svg">
<path fill-rule="evenodd" clip-rule="evenodd" d="M11.8737 14.7819C11.915 14.7169 12.0263 14.5444 12.1344 14.4038C12.4156 14.0406 12.8244 13.565 13.2738 13.0194C14.0569 12.0688 14.9538 10.9125 15.5487 9.75813C15.9825 8.9175 16.2537 8.07313 16.2537 7.29875C16.2537 3.84875 13.4538 1.04875 10.0038 1.04875C6.55438 1.04875 3.75375 3.84875 3.75375 7.29875C3.75375 9.01 3.75 13.3125 3.75 14.6875C3.75 16.9294 5.57063 18.75 7.8125 18.75C10.0231 18.75 11.8237 16.9806 11.8737 14.7819ZM6.875 8.33688H6.87563C7.91063 8.33688 8.75063 9.17688 8.75063 10.2119C8.75063 11.2469 7.91063 12.0869 6.87563 12.0869C6.53063 12.0869 6.25063 12.3669 6.25063 12.7119C6.25063 13.0569 6.53063 13.3369 6.87563 13.3369C8.60063 13.3369 10.0006 11.9363 10.0006 10.2119C10.0006 8.72125 8.955 7.4725 7.55687 7.16125C7.8 5.99188 8.78937 5 9.99125 5C11.3663 5 12.4812 6.12063 12.4812 7.5C12.4812 7.845 12.7612 8.125 13.1062 8.125C13.4512 8.125 13.7312 7.845 13.7312 7.5C13.7312 5.43 12.055 3.75 9.99125 3.75C7.93875 3.75 6.25 5.65313 6.25 7.71188C6.25 8.05688 6.53 8.33688 6.875 8.33688Z" fill="white"/>
</svg>
