<svg width="14" height="14" viewBox="0 0 14 14" fill="none" xmlns="http://www.w3.org/2000/svg">
<path d="M6.77273 1C4.14073 1 2 3.14073 2 5.77273C2 8.32518 6.30882 12.634 6.49235 12.8165C6.5699 12.8931 6.67132 12.9319 6.77274 12.9319C6.87416 12.9319 6.97559 12.8931 7.05314 12.8165C7.23659 12.6341 11.5455 8.32518 11.5455 5.77273C11.5455 3.14073 9.40473 1 6.77273 1ZM6.77273 7.76136C5.56661 7.76136 4.58516 6.77998 4.58516 5.5738C4.58516 4.36762 5.56655 3.38624 6.77273 3.38624C7.9789 3.38624 8.96029 4.36762 8.96029 5.5738C8.96029 6.77998 7.9789 7.76136 6.77273 7.76136Z" fill="#C21F20"/>
</svg>
