<svg width="30" height="30" viewBox="0 0 30 30" fill="none" xmlns="http://www.w3.org/2000/svg">
<path d="M26.25 1.5625H18.75C17.5419 1.5625 16.5625 2.54188 16.5625 3.75V11.25C16.5625 12.4581 17.5419 13.4375 18.75 13.4375H26.25C27.4581 13.4375 28.4375 12.4581 28.4375 11.25V3.75C28.4375 2.54188 27.4581 1.5625 26.25 1.5625Z" fill="black"/>
<path d="M28.4162 20.9537L24.0462 16.5837C23.6355 16.1747 23.0795 15.9451 22.5 15.9451C21.9204 15.9451 21.3644 16.1747 20.9537 16.5837L16.5837 20.9537C16.1744 21.3642 15.9446 21.9202 15.9446 22.4999C15.9446 23.0796 16.1744 23.6357 16.5837 24.0462L20.9537 28.4162C21.3642 28.8255 21.9203 29.0553 22.5 29.0553C23.0796 29.0553 23.6357 28.8255 24.0462 28.4162L28.4162 24.0462C28.8258 23.6358 29.0558 23.0797 29.0558 22.4999C29.0558 21.9201 28.8258 21.364 28.4162 20.9537Z" fill="black"/>
<path d="M11.25 1.5625H3.75C2.54188 1.5625 1.5625 2.54188 1.5625 3.75V11.25C1.5625 12.4581 2.54188 13.4375 3.75 13.4375H11.25C12.4581 13.4375 13.4375 12.4581 13.4375 11.25V3.75C13.4375 2.54188 12.4581 1.5625 11.25 1.5625Z" fill="black"/>
<path d="M11.25 16.5625H3.75C2.54188 16.5625 1.5625 17.5419 1.5625 18.75V26.25C1.5625 27.4581 2.54188 28.4375 3.75 28.4375H11.25C12.4581 28.4375 13.4375 27.4581 13.4375 26.25V18.75C13.4375 17.5419 12.4581 16.5625 11.25 16.5625Z" fill="black"/>
</svg>
