<svg width="14" height="15" viewBox="0 0 14 15" fill="none" xmlns="http://www.w3.org/2000/svg">
<path d="M11.484 8.72088L11.5914 7.7263C11.6479 7.19547 11.6859 6.84547 11.6561 6.62497H11.6666C11.8663 6.62492 12.0599 6.55657 12.2154 6.43129C12.3709 6.30601 12.4788 6.13132 12.5213 5.93623C12.5638 5.74113 12.5383 5.53737 12.449 5.35877C12.3598 5.18016 12.2121 5.03746 12.0306 4.95436C11.849 4.87125 11.6445 4.85274 11.451 4.9019C11.2574 4.95105 11.0865 5.06492 10.9667 5.22459C10.8468 5.38426 10.7851 5.58013 10.7919 5.77968C10.7987 5.97924 10.8735 6.17047 11.0039 6.32163C10.8138 6.43888 10.5653 6.6868 10.1914 7.05955C9.9026 7.34713 9.75852 7.49063 9.59752 7.5128C9.5083 7.52511 9.41742 7.51239 9.33502 7.47605C9.18685 7.41072 9.08768 7.23338 8.88993 6.87813L7.84577 5.00622C7.72385 4.78747 7.62177 4.60372 7.5296 4.45672C7.76309 4.33775 7.94973 4.14363 8.05944 3.90564C8.16915 3.66766 8.19554 3.39967 8.13436 3.14486C8.07319 2.89004 7.928 2.66325 7.72221 2.50101C7.51641 2.33878 7.26199 2.25055 6.99993 2.25055C6.73788 2.25055 6.48346 2.33878 6.27766 2.50101C6.07186 2.66325 5.92668 2.89004 5.8655 3.14486C5.80433 3.39967 5.83072 3.66766 5.94043 3.90564C6.05014 4.14363 6.23678 4.33775 6.47027 4.45672C6.3781 4.6043 6.27602 4.78747 6.15352 5.00622L5.10993 6.87813C4.9116 7.23338 4.81243 7.41072 4.66427 7.47605C4.58186 7.51239 4.49098 7.52511 4.40177 7.5128C4.24135 7.49063 4.09727 7.34713 3.80852 7.05955C3.4346 6.6868 3.1861 6.43888 2.99593 6.32163C3.12638 6.17047 3.20121 5.97924 3.20799 5.77968C3.21477 5.58013 3.1531 5.38426 3.03321 5.22459C2.91332 5.06492 2.74243 4.95105 2.5489 4.9019C2.35538 4.85274 2.15086 4.87125 1.96931 4.95436C1.78776 5.03746 1.64009 5.18016 1.55082 5.35877C1.46155 5.53737 1.43605 5.74113 1.47855 5.93623C1.52105 6.13132 1.629 6.30601 1.78448 6.43129C1.93995 6.55657 2.1336 6.62492 2.33327 6.62497H2.34377C2.31402 6.84547 2.35193 7.19605 2.40852 7.7263L2.51585 8.72088C2.57535 9.27272 2.62435 9.7983 2.68502 10.2708H11.3149C11.3755 9.7983 11.4245 9.2733 11.484 8.72088ZM6.36527 12.75H7.6346C9.28893 12.75 10.1161 12.75 10.6679 12.2559C10.9089 12.0401 11.0611 11.6516 11.1714 11.1458H2.82852C2.93877 11.6516 3.09102 12.0406 3.33193 12.2559C3.88377 12.75 4.71093 12.75 6.36527 12.75Z" fill="white"/>
</svg>
