<svg width="30" height="30" viewBox="0 0 30 30" fill="none" xmlns="http://www.w3.org/2000/svg">
<path d="M0.703125 23.7891H29.2969C29.4834 23.7891 29.6622 23.715 29.7941 23.5831C29.9259 23.4513 30 23.2724 30 23.0859C30 22.8995 29.9259 22.7206 29.7941 22.5888C29.6622 22.4569 29.4834 22.3828 29.2969 22.3828H25.7739V6.85547C25.7739 6.66899 25.6998 6.49015 25.568 6.35828C25.4361 6.22642 25.2573 6.15234 25.0708 6.15234H20.8228C20.6363 6.15234 20.4574 6.22642 20.3256 6.35828C20.1937 6.49015 20.1196 6.66899 20.1196 6.85547V22.3828H17.8271V10.2832C17.8271 10.0967 17.7531 9.91788 17.6212 9.78602C17.4893 9.65416 17.3105 9.58008 17.124 9.58008H12.876C12.6895 9.58008 12.5107 9.65416 12.3788 9.78602C12.2469 9.91788 12.1729 10.0967 12.1729 10.2832V22.3828H9.88037V13.7109C9.88037 13.5245 9.80629 13.3456 9.67443 13.2138C9.54257 13.0819 9.36373 13.0078 9.17725 13.0078H4.9292C4.74272 13.0078 4.56388 13.0819 4.43201 13.2138C4.30015 13.3456 4.22607 13.5245 4.22607 13.7109V22.3828H0.703125C0.516645 22.3828 0.337802 22.4569 0.205941 22.5888C0.074079 22.7206 0 22.8995 0 23.0859C0 23.2724 0.074079 23.4513 0.205941 23.5831C0.337802 23.715 0.516645 23.7891 0.703125 23.7891ZM21.5259 7.55859H24.3677V22.3828H21.5259V7.55859ZM13.5791 10.9863H16.4209V22.3828H13.5791V10.9863ZM5.63232 14.4141H8.47412V22.3828H5.63232V14.4141Z" fill="black"/>
</svg>
