<svg id="Layer_1" viewBox="0 0 24 24" xmlns="http://www.w3.org/2000/svg" data-name="Layer 1"><path d="m11 18v-.143c-1.206-.327-2.21-1.218-2.64-2.432-.185-.521.088-1.093.608-1.276.523-.185 1.093.089 1.276.608.288.836 1.131 1.317 1.997 1.243.896 0 1.625-.728 1.625-1.625s-.728-1.625-1.625-1.625c-2.242 0-3.621-1.42-3.613-3.375 0-1.509 1.002-2.775 2.371-3.205v-.17c0-.553.447-1 1-1s1 .447 1 1v.154c1 .31 1.825 1.075 2.185 2.095.185.521-.088 1.093-.608 1.276-.521.185-1.094-.088-1.276-.608-.194-.549-.716-.917-1.297-.917-.758 0-1.375.617-1.375 1.375-.006.864.525 1.375 1.613 1.375 1.999 0 3.625 1.626 3.625 3.625 0 1.739-1.231 3.193-2.867 3.542v.083c0 .553-.447 1-1 1s-1-.447-1-1zm11-7c-.553 0-1 .447-1 1 0 6.56-2.439 9-9 9s-9-2.44-9-9 2.439-9 9-9c4.052 0 6.432.908 7.725 2.99-.529-.009-1.057-.042-1.583-.118-.543-.074-1.053.302-1.132.849-.078.547.302 1.053.849 1.132.687.099 1.381.147 2.073.147s1.385-.049 2.072-.147c.439-.063.785-.409.849-.849.197-1.375.197-2.769 0-4.145-.079-.547-.585-.93-1.132-.849-.547.079-.927.585-.849 1.132.056.395.084.791.103 1.188-1.733-2.248-4.628-3.329-8.975-3.329-7.71-.001-11 3.289-11 10.999s3.29 11 11 11 11-3.29 11-11c0-.553-.447-1-1-1z"/></svg>