<svg width="16" height="16" viewBox="0 0 16 16" fill="none" xmlns="http://www.w3.org/2000/svg">
<path d="M9.92379 11.294C9.74027 11.3128 9.5772 11.1798 9.55845 10.9963C9.5397 10.8133 9.67266 10.6497 9.85618 10.6309C10.5062 10.5633 11.0846 10.2537 11.4994 9.7923C11.9096 9.33662 12.1591 8.73322 12.1591 8.07129C12.1591 7.40878 11.9096 6.80538 11.4994 6.35027C11.0846 5.88947 10.5056 5.57924 9.85618 5.51163C9.67267 5.49288 9.53971 5.32925 9.55845 5.1463C9.57721 4.96278 9.74084 4.82982 9.92379 4.84857C10.7442 4.93379 11.4732 5.32356 11.9954 5.90368C12.5124 6.47811 12.8277 7.23834 12.8277 8.07124C12.8277 8.90414 12.5124 9.66441 11.9954 10.2388C11.4732 10.8184 10.7442 11.2088 9.92379 11.294ZM10.596 13.5202C10.4147 13.5531 10.2414 13.4338 10.2084 13.2526C10.1755 13.0713 10.2948 12.898 10.4761 12.8651C11.6192 12.6543 12.6233 12.0446 13.3369 11.1861C14.038 10.3423 14.4596 9.25707 14.4596 8.07191C14.4596 6.88612 14.0374 5.80093 13.3369 4.95773C12.6232 4.09921 11.6192 3.48951 10.4761 3.27875C10.2948 3.24579 10.1755 3.07193 10.2084 2.89124C10.2414 2.70999 10.4153 2.59068 10.596 2.62364C11.8954 2.8634 13.0362 3.55603 13.8482 4.53214C14.647 5.49294 15.1277 6.72705 15.1277 8.07134C15.1277 9.41563 14.647 10.6498 13.8482 11.6105C13.0368 12.5867 11.8959 13.2799 10.596 13.5191V13.5202ZM8.53341 4.55088V11.5923C8.53341 11.8662 8.45841 12.1224 8.32035 12.3418C8.18341 12.5599 7.98512 12.7384 7.73796 12.8582C7.4908 12.9776 7.22717 13.0224 6.97149 12.994C6.71524 12.9656 6.46808 12.8651 6.25217 12.694L3.71472 10.6815C3.64483 10.6258 3.57381 10.5861 3.49937 10.5599C3.42664 10.5344 3.34596 10.5219 3.25562 10.5219H2.28006C1.89255 10.5219 1.54086 10.3639 1.28574 10.1088C1.0312 9.85426 0.872681 9.50198 0.872681 9.11449V7.02693C0.872681 6.63942 1.03063 6.28773 1.28574 6.03261C1.54086 5.7775 1.89256 5.61955 2.28006 5.61955H3.25562C3.34596 5.61955 3.42721 5.60705 3.49937 5.58148C3.57323 5.55592 3.64483 5.51501 3.71472 5.45989L6.25217 3.44738C6.46752 3.27693 6.71467 3.17579 6.97149 3.14738C7.22773 3.11897 7.49024 3.16329 7.73796 3.28318C7.98512 3.4025 8.18285 3.58148 8.32035 3.79966C8.45841 4.01954 8.53341 4.27579 8.53341 4.54908V4.55088Z" fill="#8E1618"/>
</svg>
