<svg width="30" height="30" viewBox="0 0 30 30" fill="none" xmlns="http://www.w3.org/2000/svg">
<path d="M12.1337 23.901C12.0179 24.0175 11.8802 24.1099 11.7286 24.173C11.5769 24.2361 11.4143 24.2686 11.25 24.2686C11.0857 24.2686 10.9231 24.2361 10.7714 24.173C10.6198 24.1099 10.4821 24.0175 10.3662 23.901L3.30874 16.8423C2.95723 16.4907 2.75977 16.0138 2.75977 15.5166C2.75977 15.0195 2.95723 14.5426 3.30874 14.191L4.19249 13.3073C4.5441 12.9558 5.02093 12.7583 5.51812 12.7583C6.0153 12.7583 6.49213 12.9558 6.84374 13.3073L11.25 17.7135L23.1562 5.80728C23.5079 5.45577 23.9847 5.2583 24.4819 5.2583C24.979 5.2583 25.4559 5.45577 25.8075 5.80728L26.6912 6.69103C27.0427 7.04264 27.2402 7.51947 27.2402 8.01665C27.2402 8.51383 27.0427 8.99066 26.6912 9.34228L12.1337 23.901Z" fill="black"/>
</svg>
